:FULLY-SPECIFIED
:FORCE-ALL-JOINTS-BE-3DOF
:DEGREES
3160
root 0.95161 16.9233 -33.3627 6.06998 5.29966 -3.70401
lfemur -18.7315 -2.42641 -8.23019
ltibia 35.3456 -0 0
lfoot -16.4215 7.54442 3.2281e-05
ltoes -40.6975 0 0
rfemur -19.5266 -0.259847 18.4934
rtibia 39.1978 -0 0
rfoot -12.2186 -21.1129 3.78031e-05
rtoes -16.3896 0 0
lowerback 5.83181 1.51207 -0.514676
upperback -4.05671 2.1145 1.85304
thorax -7.65117 1.14276 1.98403
lowerneck -5.34355 -5.15179 -7.90288
upperneck 9.19734 -6.80543 5.98536
head 4.09628 -3.34649 2.74252
lclavicle -1.43323e-14 2.06239e-15 0
lhumerus -33.3905 -18.7111 94.9457
lradius 52.0341 -0 0
lwrist -8.77491 0 0
lhand -34.0437 29.4799 -8.82873e-06
lfingers 7.12502 -0 0
lthumb -7.22175 59.3359 -8.4911e-06
rclavicle -1.43323e-14 2.06239e-15 0
rhumerus -35.5341 14.4464 -81.4343
rradius 51.3583 -0 0
rwrist 1.37852 0 0
rhand -29.3062 -34.1062 0.000175188
rfingers 7.12502 -0 0
rthumb -2.64743 -64.0693 0.000166278
3161
root 0.955966 16.9249 -33.3593 6.06996 5.28003 -3.70919
lfemur -18.7151 -2.42495 -8.2325
ltibia 35.3363 -0 0
lfoot -16.4193 7.56166 7.08096e-05
ltoes -40.688 0 0
rfemur -19.5163 -0.253294 18.4931
rtibia 39.1789 -0 0
rfoot -12.2141 -21.103 8.29225e-05
rtoes -16.3819 0 0
lowerback 5.82749 1.51479 -0.516298
upperback -4.06151 2.11809 1.85347
thorax -7.62357 1.12445 1.97472
lowerneck -5.34947 -5.14803 -7.89995
upperneck 9.21704 -6.80093 5.98471
head 4.10285 -3.3441 2.74192
lclavicle -1.43323e-14 2.06239e-15 0
lhumerus -33.3693 -18.6492 94.9207
lradius 51.8942 -0 0
lwrist -8.83154 0 0
lhand -34.045 29.4882 -1.93661e-05
lfingers 7.12502 -0 0
lthumb -7.22294 59.3442 -1.86255e-05
rclavicle -1.43323e-14 2.06239e-15 0
rhumerus -35.53 14.3777 -81.4212
rradius 51.2273 -0 0
rwrist 1.39611 0 0
rhand -29.271 -34.1004 0.000384284
rfingers 7.12502 -0 0
rthumb -2.61338 -64.0636 0.000364738
3162
root 0.960323 16.9265 -33.3559 6.06994 5.25326 -3.71626
lfemur -18.6928 -2.42295 -8.23565
ltibia 35.3236 -0 0
lfoot -16.4163 7.58519 0.000122297
ltoes -40.6749 0 0
rfemur -19.5022 -0.244354 18.4926
rtibia 39.1531 -0 0
rfoot -12.208 -21.0896 0.000143218
rtoes -16.3745 0 0
lowerback 5.82159 1.5185 -0.518509
upperback -4.06805 2.12299 1.85406
thorax -7.62751 1.12707 1.97605
lowerneck -5.35755 -5.1429 -7.89596
upperneck 9.24391 -6.79478 5.98382
head 4.11181 -3.34085 2.74109
lclavicle -1.43323e-14 2.06239e-15 0
lhumerus -33.3405 -18.5649 94.8867
lradius 51.7032 -0 0
lwrist -8.90878 0 0
lhand -34.0466 29.4996 -3.34477e-05
lfingers 7.12502 -0 0
lthumb -7.22457 59.3555 -3.21687e-05
rclavicle -1.43323e-14 2.06239e-15 0
rhumerus -35.5244 14.284 -81.4035
rradius 51.0486 -0 0
rwrist 1.42009 0 0
rhand -29.2229 -34.0925 0.00066371
rfingers 7.12502 -0 0
rthumb -2.56693 -64.0558 0.000629952
3163
root 0.964679 16.9281 -33.3525 6.06991 5.21974 -3.7251
lfemur -18.6648 -2.42044 -8.23959
ltibia 35.3077 -0 0
lfoot -16.4126 7.61463 0.000185009
ltoes -40.6586 0 0
rfemur -19.4846 -0.233166 18.492
rtibia 39.1209 -0 0
rfoot -12.2003 -21.0728 0.000216657
rtoes -16.3672 0 0
lowerback 5.81421 1.52314 -0.521278
upperback -4.07624 2.12912 1.85479
thorax -7.63245 1.13034 1.97772
lowerneck -5.36766 -5.13648 -7.89096
upperneck 9.27755 -6.78709 5.98272
head 4.12303 -3.33677 2.74006
lclavicle -1.43323e-14 2.06239e-15 0
lhumerus -33.3045 -18.4593 94.8442
lradius 51.4643 -0 0
lwrist -9.00546 0 0
lhand -34.0488 29.5139 -5.05992e-05
lfingers 7.12502 -0 0
lthumb -7.22661 59.3697 -4.86642e-05
rclavicle -1.43323e-14 2.06239e-15 0
rhumerus -35.5175 14.1666 -81.3813
rradius 50.825 -0 0
rwrist 1.45012 0 0
rhand -29.1627 -34.0825 0.00100405
rfingers 7.12502 -0 0
rthumb -2.5088 -64.046 0.000952985
3164
root 0.969035 16.9297 -33.3491 6.06989 5.1799 -3.73561
lfemur -18.6316 -2.41746 -8.24427
ltibia 35.2887 -0 0
lfoot -16.4081 7.64963 0.000257062
ltoes -40.6392 0 0
rfemur -19.4636 -0.219864 18.4913
rtibia 39.0826 -0 0
rfoot -12.1912 -21.0528 0.000301035
rtoes -16.3602 0 0
lowerback 5.80543 1.52865 -0.52457
upperback -4.08597 2.1364 1.85566
thorax -7.63832 1.13424 1.9797
lowerneck -5.37968 -5.12884 -7.88502
upperneck 9.31754 -6.77794 5.98141
head 4.13636 -3.33193 2.73884
lclavicle -1.43323e-14 2.06239e-15 0
lhumerus -33.2618 -18.3337 94.7937
lradius 51.1802 -0 0
lwrist -9.12039 0 0
lhand -34.0513 29.5309 -7.03052e-05
lfingers 7.12502 -0 0
lthumb -7.22903 59.3866 -6.76166e-05
rclavicle -1.43323e-14 2.06239e-15 0
rhumerus -35.5093 14.0272 -81.355
rradius 50.5591 -0 0
rwrist 1.48581 0 0
rhand -29.0911 -34.0707 0.0013951
rfingers 7.12502 -0 0
rthumb -2.4397 -64.0344 0.00132414
3165
root 0.973391 16.9313 -33.3457 6.06987 5.13414 -3.74768
lfemur -18.5935 -2.41404 -8.24965
ltibia 35.267 -0 0
lfoot -16.403 7.68983 0.000336469
ltoes -40.617 0 0
rfemur -19.4396 -0.204586 18.4905
rtibia 39.0385 -0 0
rfoot -12.1807 -21.0298 0.000394024
rtoes -16.3926 0 0
lowerback 5.79535 1.53498 -0.528353
upperback -4.09716 2.14477 1.85666
thorax -7.64506 1.13871 1.98197
lowerneck -5.39349 -5.12007 -7.8782
upperneck 9.36346 -6.76743 5.97991
head 4.15167 -3.32636 2.73743
lclavicle -1.43323e-14 2.06239e-15 0
lhumerus -33.213 -18.1894 94.7359
lradius 50.8539 -0 0
lwrist -9.25239 0 0
lhand -34.0542 29.5503 -9.20223e-05
lfingers 7.12502 -0 0
lthumb -7.23182 59.406 -8.85033e-05
rclavicle -1.43323e-14 2.06239e-15 0
rhumerus -35.5 13.8669 -81.3248
rradius 50.2537 -0 0
rwrist 1.5268 0 0
rhand -29.0089 -34.0572 0.00182605
rfingers 7.12502 -0 0
rthumb -2.36032 -64.0211 0.00173317
3166
root 0.977747 16.9329 -33.3423 6.06986 5.08287 -3.7612
lfemur -18.5507 -2.41019 -8.25568
ltibia 35.2427 -0 0
lfoot -16.3973 7.73488 0.000421181
ltoes -40.592 0 0
rfemur -19.4126 -0.187467 18.4896
rtibia 38.9892 -0 0
rfoot -12.169 -21.0041 0.000493227
rtoes -16.3889 0 0
lowerback 5.78406 1.54208 -0.532593
upperback -4.10969 2.15415 1.85778
thorax -7.65261 1.14372 1.98452
lowerneck -5.40895 -5.11025 -7.87055
upperneck 9.41492 -6.75566 5.97825
head 4.16883 -3.32012 2.73586
lclavicle -1.43323e-14 2.06239e-15 0
lhumerus -33.1586 -18.0276 94.6714
lradius 50.4884 -0 0
lwrist -9.4003 0 0
lhand -34.0574 29.5722 -0.000115191
lfingers 7.12502 -0 0
lthumb -7.23494 59.4278 -0.000110786
rclavicle -1.43323e-14 2.06239e-15 0
rhumerus -35.4896 13.6874 -81.291
rradius 49.9116 -0 0
rwrist 1.57274 0 0
rhand -28.9169 -34.042 0.00228581
rfingers 7.12502 -0 0
rthumb -2.27138 -64.0062 0.00216954
3167
root 0.982103 16.9345 -33.3389 6.06986 5.02649 -3.77607
lfemur -18.5037 -2.40596 -8.2623
ltibia 35.2159 -0 0
lfoot -16.391 7.78441 0.000509131
ltoes -40.5646 0 0
rfemur -19.383 -0.168644 18.4886
rtibia 38.9349 -0 0
rfoot -12.1561 -20.9758 0.00059622
rtoes -16.3849 0 0
lowerback 5.77164 1.54988 -0.537256
upperback -4.12346 2.16446 1.859
thorax -7.66091 1.14923 1.98732
lowerneck -5.42596 -5.09944 -7.86215
upperneck 9.4715 -6.74271 5.97643
head 4.1877 -3.31327 2.73413
lclavicle -1.43323e-14 2.06239e-15 0
lhumerus -33.099 -17.8497 94.6007
lradius 50.0864 -0 0
lwrist -9.56293 0 0
lhand -34.0609 29.5962 -0.000139244
lfingers 7.12502 -0 0
lthumb -7.23837 59.4517 -0.000133919
rclavicle -1.43323e-14 2.06239e-15 0
rhumerus -35.4784 13.4901 -81.254
rradius 49.5354 -0 0
rwrist 1.62324 0 0
rhand -28.8156 -34.0253 0.00276314
rfingers 7.12502 -0 0
rthumb -2.17359 -63.9897 0.0026226
